<svg xmlns="http://www.w3.org/2000/svg" viewBox="0 0 64 64" fill="none">
  <rect width="64" height="64" rx="14" fill="#FAF8F5"/>
  <!-- Bag Body -->
  <path d="M26 14C26 10.686 28.686 8 32 8C35.314 8 38 10.686 38 14" stroke="#F59E0B" stroke-width="3" stroke-linecap="round"/>
  <path d="M20 22C20 18.686 22.686 16 26 16H38C41.314 16 44 18.686 44 22L47 38C47 41.314 44.314 44 41 44H23C19.686 44 17 41.314 17 38L20 22Z" fill="#F59E0B"/>
  <!-- Cart Swoosh & S Emblem -->
  <path d="M12 28H18L24 46H44" stroke="#0F2852" stroke-width="4" stroke-linecap="round" stroke-linejoin="round"/>
  <circle cx="25" cy="53" r="3.5" fill="#0F2852"/>
  <circle cx="41" cy="53" r="3.5" fill="#0F2852"/>
  <path d="M26 26C31 23 38 24 40 28C42 32 30 33 34 37C38 41 43 38 43 38" stroke="#FAF8F5" stroke-width="3.5" stroke-linecap="round" stroke-linejoin="round"/>
</svg>